Wavefont-wmax,rmax,amax.ufo
<glyph name="_2" format="2">
	<unicode hex="0102"/>
	<unicode hex="0062"/>
	<advance width="250"/>
	<outline>
		<component base="cap" yOffset="980"/>
		<component base="cap" yOffset="750"/>
		<contour>
			<point x="0" y="1105" type="line"/>
			<point x="0" y="875" type="line"/>
			<point x="250" y="875" type="line"/>
			<point x="250" y="1105" type="line"/>
		</contour>
	</outline>
</glyph>
<glyph name="_3" format="2">
	<unicode hex="0103"/>
	<advance width="200"/>
	<outline>
		<component base="cap" yOffset="970"/>
		<component base="cap" yOffset="800"/>
		<contour>
			<point x="0" y="1070" type="line"/>
			<point x="0" y="900" type="line"/>
			<point x="200" y="900" type="line"/>
			<point x="200" y="1070" type="line"/>
		</contour>
	</outline>
</glyph>
<glyph name="_5" format="2">
	<unicode hex="0105"/>
	<advance width="200"/>
	<outline>
		<component base="cap" yOffset="950"/>
		<component base="cap" yOffset="800"/>
		<contour>
			<point x="0" y="1050" type="line"/>
			<point x="0" y="900" type="line"/>
			<point x="200" y="900" type="line"/>
			<point x="200" y="1050" type="line"/>
		</contour>
	</outline>
</glyph>
<glyph name="_6" format="2">
	<unicode hex="0106"/>
	<unicode hex="0064"/>
	<advance width="404"/>
	<outline>
		<component base="cap" yOffset="940"/>
		<component base="cap" yOffset="596"/>
		<contour>
			<point x="0" y="1142" type="line"/>
			<point x="0" y="798" type="line"/>
			<point x="404" y="798" type="line"/>
			<point x="404" y="1142" type="line"/>
		</contour>
	</outline>
</glyph>
<glyph name="_7" format="2">
	<unicode hex="0107"/>
	<advance width="200"/>
	<outline>
		<component base="cap" yOffset="930"/>
		<component base="cap" yOffset="800"/>
		<contour>
			<point x="0" y="1030" type="line"/>
			<point x="0" y="900" type="line"/>
			<point x="200" y="900" type="line"/>
			<point x="200" y="1030" type="line"/>
		</contour>
	</outline>
</glyph>
<glyph name="_8" format="2">
	<unicode hex="0108"/>
	<unicode hex="0065"/>
	<advance width="200"/>
	<outline>
		<component base="cap" yOffset="920"/>
		<component base="cap" yOffset="800"/>
		<contour>
			<point x="0" y="1020" type="line"/>
			<point x="0" y="900" type="line"/>
			<point x="200" y="900" type="line"/>
			<point x="200" y="1020" type="line"/>
		</contour>
	</outline>
</glyph>
<glyph name="_9" format="2">
	<unicode hex="0109"/>
	<advance width="404"/>
	<outline>
		<component base="cap" yOffset="910"/>
		<component base="cap" yOffset="596"/>
		<contour>
			<point x="0" y="1112" type="line"/>
			<point x="0" y="798" type="line"/>
			<point x="404" y="798" type="line"/>
			<point x="404" y="1112" type="line"/>
		</contour>
	</outline>
</glyph>
<glyph name="_10" format="2">
	<unicode hex="010A"/>
	<unicode hex="0031"/>
	<unicode hex="0066"/>
	<advance width="250"/>
	<outline>
		<component base="cap" yOffset="900"/>
		<component base="cap" yOffset="750"/>
		<contour>
			<point x="0" y="1025" type="line"/>
			<point x="0" y="875" type="line"/>
			<point x="250" y="875" type="line"/>
			<point x="250" y="1025" type="line"/>
		</contour>
	</outline>
</glyph>
<glyph name="_11" format="2">
	<unicode hex="010B"/>
	<advance width="404"/>
	<outline>
		<component base="cap" yOffset="890"/>
		<component base="cap" yOffset="596"/>
		<contour>
			<point x="0" y="1092" type="line"/>
			<point x="0" y="798" type="line"/>
			<point x="404" y="798" type="line"/>
			<point x="404" y="1092" type="line"/>
		</contour>
	</outline>
</glyph>
<glyph name="_12" format="2">
	<unicode hex="010C"/>
	<unicode hex="0067"/>
	<advance width="250"/>
	<outline>
		<component base="cap" yOffset="880"/>
		<component base="cap" yOffset="750"/>
		<contour>
			<point x="0" y="1005" type="line"/>
			<point x="0" y="875" type="line"/>
			<point x="250" y="875" type="line"/>
			<point x="250" y="1005" type="line"/>
		</contour>
	</outline>
</glyph>
<glyph name="_13" format="2">
	<unicode hex="010D"/>
	<advance width="404"/>
	<outline>
		<component base="cap" yOffset="870"/>
		<component base="cap" yOffset="596"/>
		<contour>
			<point x="0" y="1072" type="line"/>
			<point x="0" y="798" type="line"/>
			<point x="404" y="798" type="line"/>
			<point x="404" y="1072" type="line"/>
		</contour>
	</outline>
</glyph>
<glyph name="_14" format="2">
	<unicode hex="010E"/>
	<unicode hex="2582"/>
	<unicode hex="0068"/>
	<advance width="200"/>
	<outline>
		<component base="cap" yOffset="860"/>
		<component base="cap" yOffset="800"/>
		<contour>
			<point x="0" y="960" type="line"/>
			<point x="0" y="900" type="line"/>
			<point x="200" y="900" type="line"/>
			<point x="200" y="960" type="line"/>
		</contour>
	</outline>
</glyph>
<glyph name="_15" format="2">
	<unicode hex="010F"/>
	<advance width="404"/>
	<outline>
		<component base="cap" yOffset="850"/>
		<component base="cap" yOffset="596"/>
		<contour>
			<point x="0" y="1052" type="line"/>
			<point x="0" y="798" type="line"/>
			<point x="404" y="798" type="line"/>
			<point x="404" y="1052" type="line"/>
		</contour>
	</outline>
</glyph>
<glyph name="_16" format="2">
	<unicode hex="0110"/>
	<unicode hex="0069"/>
	<advance width="250"/>
	<outline>
		<component base="cap" yOffset="840"/>
		<component base="cap" yOffset="750"/>
		<contour>
			<point x="0" y="965" type="line"/>
			<point x="0" y="875" type="line"/>
			<point x="250" y="875" type="line"/>
			<point x="250" y="965" type="line"/>
		</contour>
	</outline>
</glyph>
<glyph name="_17" format="2">
	<unicode hex="0111"/>
	<advance width="250"/>
	<outline>
		<component base="cap" yOffset="830"/>
		<component base="cap" yOffset="750"/>
		<contour>
			<point x="0" y="955" type="line"/>
			<point x="0" y="875" type="line"/>
			<point x="250" y="875" type="line"/>
			<point x="250" y="955" type="line"/>
		</contour>
	</outline>
</glyph>
<glyph name="_18" format="2">
	<unicode hex="0112"/>
	<unicode hex="006A"/>
	<advance width="404"/>
	<outline>
		<component base="cap" yOffset="820"/>
		<component base="cap" yOffset="596"/>
		<contour>
			<point x="0" y="1022" type="line"/>
			<point x="0" y="798" type="line"/>
			<point x="404" y="798" type="line"/>
			<point x="404" y="1022" type="line"/>
		</contour>
	</outline>
</glyph>
<glyph name="_19" format="2">
	<unicode hex="0113"/>
	<advance width="200"/>
	<outline>
		<component base="cap" yOffset="810"/>
		<component base="cap" yOffset="800"/>
		<contour>
			<point x="0" y="910" type="line"/>
			<point x="0" y="900" type="line"/>
			<point x="200" y="900" type="line"/>
			<point x="200" y="910" type="line"/>
		</contour>
	</outline>
</glyph>
<glyph name="_20" format="2">
	<unicode hex="0114"/>
	<unicode hex="0032"/>
	<unicode hex="006B"/>
	<advance width="404"/>
	<outline>
		<component base="cap" yOffset="800"/>
		<component base="cap" yOffset="596"/>
		<contour>
			<point x="0" y="1002" type="line"/>
			<point x="0" y="798" type="line"/>
			<point x="404" y="798" type="line"/>
			<point x="404" y="1002" type="line"/>
		</contour>
	</outline>
</glyph>
<glyph name="_21" format="2">
	<unicode hex="0115"/>
	<advance width="200"/>
	<outline>
		<component base="cap" yOffset="790"/>
		<component base="cap" yOffset="800"/>
		<contour>
			<point x="0" y="890" type="line"/>
			<point x="0" y="900" type="line"/>
			<point x="200" y="900" type="line"/>
			<point x="200" y="890" type="line"/>
		</contour>
	</outline>
</glyph>
<glyph name="_22" format="2">
	<unicode hex="0116"/>
	<unicode hex="006C"/>
	<advance width="200"/>
	<outline>
		<component base="cap" yOffset="780"/>
		<component base="cap" yOffset="800"/>
		<contour>
			<point x="0" y="880" type="line"/>
			<point x="0" y="900" type="line"/>
			<point x="200" y="900" type="line"/>
			<point x="200" y="880" type="line"/>
		</contour>
	</outline>
</glyph>
<glyph name="_23" format="2">
	<unicode hex="0117"/>
	<advance width="200"/>
	<outline>
		<component base="cap" yOffset="770"/>
		<component base="cap" yOffset="800"/>
		<contour>
			<point x="0" y="870" type="line"/>
			<point x="0" y="900" type="line"/>
			<point x="200" y="900" type="line"/>
			<point x="200" y="870" type="line"/>
		</contour>
	</outline>
</glyph>
<glyph name="_24" format="2">
	<unicode hex="0118"/>
	<unicode hex="006D"/>
	<advance width="250"/>
	<outline>
		<component base="cap" yOffset="760"/>
		<component base="cap" yOffset="750"/>
		<contour>
			<point x="0" y="885" type="line"/>
			<point x="0" y="875" type="line"/>
			<point x="250" y="875" type="line"/>
			<point x="250" y="885" type="line"/>
		</contour>
	</outline>
</glyph>
<glyph name="_25" format="2">
	<unicode hex="0119"/>
	<advance width="200"/>
	<outline>
		<component base="cap" yOffset="750"/>
		<component base="cap" yOffset="800"/>
		<contour>
			<point x="0" y="850" type="line"/>
			<point x="0" y="900" type="line"/>
			<point x="200" y="900" type="line"/>
			<point x="200" y="850" type="line"/>
		</contour>
	</outline>
</glyph>
<glyph name="_26" format="2">
	<unicode hex="011A"/>
	<unicode hex="006E"/>
	<advance width="250"/>
	<outline>
		<component base="cap" yOffset="740"/>
		<component base="cap" yOffset="750"/>
		<contour>
			<point x="0" y="865" type="line"/>
			<point x="0" y="875" type="line"/>
			<point x="250" y="875" type="line"/>
			<point x="250" y="865" type="line"/>
		</contour>
	</outline>
</glyph>
<glyph name="_27" format="2">
	<unicode hex="011B"/>
	<advance width="200"/>
	<outline>
		<component base="cap" yOffset="730"/>
		<component base="cap" yOffset="800"/>
		<contour>
			<point x="0" y="830" type="line"/>
			<point x="0" y="900" type="line"/>
			<point x="200" y="900" type="line"/>
			<point x="200" y="830" type="line"/>
		</contour>
	</outline>
</glyph>
<glyph name="_28" format="2">
	<unicode hex="011C"/>
	<unicode hex="2583"/>
	<unicode hex="006F"/>
	<advance width="404"/>
	<outline>
		<component base="cap" yOffset="720"/>
		<component base="cap" yOffset="596"/>
		<contour>
			<point x="0" y="922" type="line"/>
			<point x="0" y="798" type="line"/>
			<point x="404" y="798" type="line"/>
			<point x="404" y="922" type="line"/>
		</contour>
	</outline>
</glyph>
<glyph name="_29" format="2">
	<unicode hex="011D"/>
	<advance width="250"/>
	<outline>
		<component base="cap" yOffset="710"/>
		<component base="cap" yOffset="750"/>
		<contour>
			<point x="0" y="835" type="line"/>
			<point x="0" y="875" type="line"/>
			<point x="250" y="875" type="line"/>
			<point x="250" y="835" type="line"/>
		</contour>
	</outline>
</glyph>
<glyph name="_30" format="2">
	<unicode hex="011E"/>
	<unicode hex="0033"/>
	<unicode hex="0070"/>
	<advance width="200"/>
	<outline>
		<component base="cap" yOffset="700"/>
		<component base="cap" yOffset="800"/>
		<contour>
			<point x="0" y="800" type="line"/>
			<point x="0" y="900" type="line"/>
			<point x="200" y="900" type="line"/>
			<point x="200" y="800" type="line"/>
		</contour>
	</outline>
</glyph>
<glyph name="_31" format="2">
	<unicode hex="011F"/>
	<advance width="200"/>
	<outline>
		<component base="cap" yOffset="690"/>
		<component base="cap" yOffset="800"/>
		<contour>
			<point x="0" y="790" type="line"/>
			<point x="0" y="900" type="line"/>
			<point x="200" y="900" type="line"/>
			<point x="200" y="790" type="line"/>
		</contour>
	</outline>
</glyph>
<glyph name="_32" format="2">
	<unicode hex="0120"/>
	<unicode hex="0071"/>
	<advance width="200"/>
	<outline>
		<component base="cap" yOffset="680"/>
		<component base="cap" yOffset="800"/>
		<contour>
			<point x="0" y="780" type="line"/>
			<point x="0" y="900" type="line"/>
			<point x="200" y="900" type="line"/>
			<point x="200" y="780" type="line"/>
		</contour>
	</outline>
</glyph>
<glyph name="_33" format="2">
	<unicode hex="0121"/>
	<advance width="200"/>
	<outline>
		<component base="cap" yOffset="670"/>
		<component base="cap" yOffset="800"/>
		<contour>
			<point x="0" y="770" type="line"/>
			<point x="0" y="900" type="line"/>
			<point x="200" y="900" type="line"/>
			<point x="200" y="770" type="line"/>
		</contour>
	</outline>
</glyph>
<glyph name="_34" format="2">
	<unicode hex="0122"/>
	<unicode hex="0072"/>
	<advance width="200"/>
	<outline>
		<component base="cap" yOffset="660"/>
		<component base="cap" yOffset="800"/>
		<contour>
			<point x="0" y="760" type="line"/>
			<point x="0" y="900" type="line"/>
			<point x="200" y="900" type="line"/>
			<point x="200" y="760" type="line"/>
		</contour>
	</outline>
</glyph>
<glyph name="_35" format="2">
	<unicode hex="0123"/>
	<advance width="404"/>
	<outline>
		<component base="cap" yOffset="650"/>
		<component base="cap" yOffset="596"/>
		<contour>
			<point x="0" y="852" type="line"/>
			<point x="0" y="798" type="line"/>
			<point x="404" y="798" type="line"/>
			<point x="404" y="852" type="line"/>
		</contour>
	</outline>
</glyph>
<glyph name="_36" format="2">
	<unicode hex="0124"/>
	<unicode hex="0073"/>
	<advance width="200"/>
	<outline>
		<component base="cap" yOffset="640"/>
		<component base="cap" yOffset="800"/>
		<contour>
			<point x="0" y="740" type="line"/>
			<point x="0" y="900" type="line"/>
			<point x="200" y="900" type="line"/>
			<point x="200" y="740" type="line"/>
		</contour>
	</outline>
</glyph>
<glyph name="_37" format="2">
	<unicode hex="0125"/>
	<advance width="200"/>
	<outline>
		<component base="cap" yOffset="630"/>
		<component base="cap" yOffset="800"/>
		<contour>
			<point x="0" y="730" type="line"/>
			<point x="0" y="900" type="line"/>
			<point x="200" y="900" type="line"/>
			<point x="200" y="730" type="line"/>
		</contour>
	</outline>
</glyph>
<glyph name="_38" format="2">
	<unicode hex="0126"/>
	<unicode hex="0074"/>
	<advance width="250"/>
	<outline>
		<component base="cap" yOffset="620"/>
		<component base="cap" yOffset="750"/>
		<contour>
			<point x="0" y="745" type="line"/>
			<point x="0" y="875" type="line"/>
			<point x="250" y="875" type="line"/>
			<point x="250" y="745" type="line"/>
		</contour>
	</outline>
</glyph>
<glyph name="_39" format="2">
	<unicode hex="0127"/>
	<advance width="200"/>
	<outline>
		<component base="cap" yOffset="610"/>
		<component base="cap" yOffset="800"/>
		<contour>
			<point x="0" y="710" type="line"/>
			<point x="0" y="900" type="line"/>
			<point x="200" y="900" type="line"/>
			<point x="200" y="710" type="line"/>
		</contour>
	</outline>
</glyph>
<glyph name="_40" format="2">
	<unicode hex="0128"/>
	<unicode hex="0034"/>
	<unicode hex="0075"/>
	<advance width="250"/>
	<outline>
		<component base="cap" yOffset="600"/>
		<component base="cap" yOffset="750"/>
		<contour>
			<point x="0" y="725" type="line"/>
			<point x="0" y="875" type="line"/>
			<point x="250" y="875" type="line"/>
			<point x="250" y="725" type="line"/>
		</contour>
	</outline>
</glyph>
<glyph name="_41" format="2">
	<unicode hex="0129"/>
	<advance width="250"/>
	<outline>
		<component base="cap" yOffset="590"/>
		<component base="cap" yOffset="750"/>
		<contour>
			<point x="0" y="715" type="line"/>
			<point x="0" y="875" type="line"/>
			<point x="250" y="875" type="line"/>
			<point x="250" y="715" type="line"/>
		</contour>
	</outline>
</glyph>
<glyph name="_42" format="2">
	<unicode hex="012A"/>
	<unicode hex="2584"/>
	<unicode hex="0076"/>
	<advance width="250"/>
	<outline>
		<component base="cap" yOffset="580"/>
		<component base="cap" yOffset="750"/>
		<contour>
			<point x="0" y="705" type="line"/>
			<point x="0" y="875" type="line"/>
			<point x="250" y="875" type="line"/>
			<point x="250" y="705" type="line"/>
		</contour>
	</outline>
</glyph>
<glyph name="_43" format="2">
	<unicode hex="012B"/>
	<advance width="200"/>
	<outline>
		<component base="cap" yOffset="570"/>
		<component base="cap" yOffset="800"/>
		<contour>
			<point x="0" y="670" type="line"/>
			<point x="0" y="900" type="line"/>
			<point x="200" y="900" type="line"/>
			<point x="200" y="670" type="line"/>
		</contour>
	</outline>
</glyph>
<glyph name="_44" format="2">
	<unicode hex="012C"/>
	<unicode hex="0077"/>
	<advance width="200"/>
	<outline>
		<component base="cap" yOffset="560"/>
		<component base="cap" yOffset="800"/>
		<contour>
			<point x="0" y="660" type="line"/>
			<point x="0" y="900" type="line"/>
			<point x="200" y="900" type="line"/>
			<point x="200" y="660" type="line"/>
		</contour>
	</outline>
</glyph>
<glyph name="_45" format="2">
	<unicode hex="012D"/>
	<advance width="250"/>
	<outline>
		<component base="cap" yOffset="550"/>
		<component base="cap" yOffset="750"/>
		<contour>
			<point x="0" y="675" type="line"/>
			<point x="0" y="875" type="line"/>
			<point x="250" y="875" type="line"/>
			<point x="250" y="675" type="line"/>
		</contour>
	</outline>
</glyph>
<glyph name="_46" format="2">
	<unicode hex="012E"/>
	<unicode hex="0078"/>
	<advance width="200"/>
	<outline>
		<component base="cap" yOffset="540"/>
		<component base="cap" yOffset="800"/>
		<contour>
			<point x="0" y="640" type="line"/>
			<point x="0" y="900" type="line"/>
			<point x="200" y="900" type="line"/>
			<point x="200" y="640" type="line"/>
		</contour>
	</outline>
</glyph>
<glyph name="_47" format="2">
	<unicode hex="012F"/>
	<advance width="404"/>
	<outline>
		<component base="cap" yOffset="530"/>
		<component base="cap" yOffset="596"/>
		<contour>
			<point x="0" y="732" type="line"/>
			<point x="0" y="798" type="line"/>
			<point x="404" y="798" type="line"/>
			<point x="404" y="732" type="line"/>
		</contour>
	</outline>
</glyph>
<glyph name="_48" format="2">
	<unicode hex="0130"/>
	<unicode hex="0079"/>
	<advance width="250"/>
	<outline>
		<component base="cap" yOffset="520"/>
		<component base="cap" yOffset="750"/>
		<contour>
			<point x="0" y="645" type="line"/>
			<point x="0" y="875" type="line"/>
			<point x="250" y="875" type="line"/>
			<point x="250" y="645" type="line"/>
		</contour>
	</outline>
</glyph>
<glyph name="_49" format="2">
	<unicode hex="0131"/>
	<advance width="200"/>
	<outline>
		<component base="cap" yOffset="510"/>
		<component base="cap" yOffset="800"/>
		<contour>
			<point x="0" y="610" type="line"/>
			<point x="0" y="900" type="line"/>
			<point x="200" y="900" type="line"/>
			<point x="200" y="610" type="line"/>
		</contour>
	</outline>
</glyph>
<glyph name="_50" format="2">
	<unicode hex="0132"/>
	<unicode hex="0035"/>
	<unicode hex="007A"/>
	<advance width="200"/>
	<outline>
		<component base="cap" yOffset="500"/>
		<component base="cap" yOffset="800"/>
		<contour>
			<point x="0" y="600" type="line"/>
			<point x="0" y="900" type="line"/>
			<point x="200" y="900" type="line"/>
			<point x="200" y="600" type="line"/>
		</contour>
	</outline>
</glyph>
<glyph name="_52" format="2">
	<unicode hex="0134"/>
	<unicode hex="0041"/>
	<advance width="250"/>
	<outline>
		<component base="cap" yOffset="480"/>
		<component base="cap" yOffset="750"/>
		<contour>
			<point x="0" y="605" type="line"/>
			<point x="0" y="875" type="line"/>
			<point x="250" y="875" type="line"/>
			<point x="250" y="605" type="line"/>
		</contour>
	</outline>
</glyph>
<glyph name="_53" format="2">
	<unicode hex="0135"/>
	<advance width="250"/>
	<outline>
		<component base="cap" yOffset="470"/>
		<component base="cap" yOffset="750"/>
		<contour>
			<point x="0" y="595" type="line"/>
			<point x="0" y="875" type="line"/>
			<point x="250" y="875" type="line"/>
			<point x="250" y="595" type="line"/>
		</contour>
	</outline>
</glyph>
<glyph name="_54" format="2">
	<unicode hex="0136"/>
	<unicode hex="0042"/>
	<advance width="250"/>
	<outline>
		<component base="cap" yOffset="460"/>
		<component base="cap" yOffset="750"/>
		<contour>
			<point x="0" y="585" type="line"/>
			<point x="0" y="875" type="line"/>
			<point x="250" y="875" type="line"/>
			<point x="250" y="585" type="line"/>
		</contour>
	</outline>
</glyph>
<glyph name="_55" format="2">
	<unicode hex="0137"/>
	<advance width="404"/>
	<outline>
		<component base="cap" yOffset="450"/>
		<component base="cap" yOffset="596"/>
		<contour>
			<point x="0" y="652" type="line"/>
			<point x="0" y="798" type="line"/>
			<point x="404" y="798" type="line"/>
			<point x="404" y="652" type="line"/>
		</contour>
	</outline>
</glyph>
<glyph name="_56" format="2">
	<unicode hex="0138"/>
	<unicode hex="2585"/>
	<unicode hex="0043"/>
	<advance width="404"/>
	<outline>
		<component base="cap" yOffset="440"/>
		<component base="cap" yOffset="596"/>
		<contour>
			<point x="0" y="642" type="line"/>
			<point x="0" y="798" type="line"/>
			<point x="404" y="798" type="line"/>
			<point x="404" y="642" type="line"/>
		</contour>
	</outline>
</glyph>
<glyph name="_57" format="2">
	<unicode hex="0139"/>
	<advance width="404"/>
	<outline>
		<component base="cap" yOffset="430"/>
		<component base="cap" yOffset="596"/>
		<contour>
			<point x="0" y="632" type="line"/>
			<point x="0" y="798" type="line"/>
			<point x="404" y="798" type="line"/>
			<point x="404" y="632" type="line"/>
		</contour>
	</outline>
</glyph>
<glyph name="_58" format="2">
	<unicode hex="013A"/>
	<unicode hex="0044"/>
	<advance width="250"/>
	<outline>
		<component base="cap" yOffset="420"/>
		<component base="cap" yOffset="750"/>
		<contour>
			<point x="0" y="545" type="line"/>
			<point x="0" y="875" type="line"/>
			<point x="250" y="875" type="line"/>
			<point x="250" y="545" type="line"/>
		</contour>
	</outline>
</glyph>
<glyph name="_59" format="2">
	<unicode hex="013B"/>
	<advance width="250"/>
	<outline>
		<component base="cap" yOffset="410"/>
		<component base="cap" yOffset="750"/>
		<contour>
			<point x="0" y="535" type="line"/>
			<point x="0" y="875" type="line"/>
			<point x="250" y="875" type="line"/>
			<point x="250" y="535" type="line"/>
		</contour>
	</outline>
</glyph>
<glyph name="_60" format="2">
	<unicode hex="013C"/>
	<unicode hex="0036"/>
	<unicode hex="0045"/>
	<advance width="200"/>
	<outline>
		<component base="cap" yOffset="400"/>
		<component base="cap" yOffset="800"/>
		<contour>
			<point x="0" y="500" type="line"/>
			<point x="0" y="900" type="line"/>
			<point x="200" y="900" type="line"/>
			<point x="200" y="500" type="line"/>
		</contour>
	</outline>
</glyph>
<glyph name="_62" format="2">
	<unicode hex="013E"/>
	<unicode hex="0046"/>
	<advance width="404"/>
	<outline>
		<component base="cap" yOffset="380"/>
		<component base="cap" yOffset="596"/>
		<contour>
			<point x="0" y="582" type="line"/>
			<point x="0" y="798" type="line"/>
			<point x="404" y="798" type="line"/>
			<point x="404" y="582" type="line"/>
		</contour>
	</outline>
</glyph>
<glyph name="_63" format="2">
	<unicode hex="013F"/>
	<advance width="404"/>
	<outline>
		<component base="cap" yOffset="370"/>
		<component base="cap" yOffset="596"/>
		<contour>
			<point x="0" y="572" type="line"/>
			<point x="0" y="798" type="line"/>
			<point x="404" y="798" type="line"/>
			<point x="404" y="572" type="line"/>
		</contour>
	</outline>
</glyph>
<glyph name="_64" format="2">
	<unicode hex="0140"/>
	<unicode hex="0047"/>
	<advance width="200"/>
	<outline>
		<component base="cap" yOffset="360"/>
		<component base="cap" yOffset="800"/>
		<contour>
			<point x="0" y="460" type="line"/>
			<point x="0" y="900" type="line"/>
			<point x="200" y="900" type="line"/>
			<point x="200" y="460" type="line"/>
		</contour>
	</outline>
</glyph>
<glyph name="_65" format="2">
	<unicode hex="0141"/>
	<advance width="250"/>
	<outline>
		<component base="cap" yOffset="350"/>
		<component base="cap" yOffset="750"/>
		<contour>
			<point x="0" y="475" type="line"/>
			<point x="0" y="875" type="line"/>
			<point x="250" y="875" type="line"/>
			<point x="250" y="475" type="line"/>
		</contour>
	</outline>
</glyph>
<glyph name="_66" format="2">
	<unicode hex="0142"/>
	<unicode hex="0048"/>
	<advance width="404"/>
	<outline>
		<component base="cap" yOffset="340"/>
		<component base="cap" yOffset="596"/>
		<contour>
			<point x="0" y="542" type="line"/>
			<point x="0" y="798" type="line"/>
			<point x="404" y="798" type="line"/>
			<point x="404" y="542" type="line"/>
		</contour>
	</outline>
</glyph>
<glyph name="_67" format="2">
	<unicode hex="0143"/>
	<advance width="200"/>
	<outline>
		<component base="cap" yOffset="330"/>
		<component base="cap" yOffset="800"/>
		<contour>
			<point x="0" y="430" type="line"/>
			<point x="0" y="900" type="line"/>
			<point x="200" y="900" type="line"/>
			<point x="200" y="430" type="line"/>
		</contour>
	</outline>
</glyph>
<glyph name="_68" format="2">
	<unicode hex="0144"/>
	<unicode hex="0049"/>
	<advance width="250"/>
	<outline>
		<component base="cap" yOffset="320"/>
		<component base="cap" yOffset="750"/>
		<contour>
			<point x="0" y="445" type="line"/>
			<point x="0" y="875" type="line"/>
			<point x="250" y="875" type="line"/>
			<point x="250" y="445" type="line"/>
		</contour>
	</outline>
</glyph>
<glyph name="_69" format="2">
	<unicode hex="0145"/>
	<advance width="200"/>
	<outline>
		<component base="cap" yOffset="310"/>
		<component base="cap" yOffset="800"/>
		<contour>
			<point x="0" y="410" type="line"/>
			<point x="0" y="900" type="line"/>
			<point x="200" y="900" type="line"/>
			<point x="200" y="410" type="line"/>
		</contour>
	</outline>
</glyph>
<glyph name="_70" format="2">
	<unicode hex="0146"/>
	<unicode hex="0037"/>
	<unicode hex="004A"/>
	<advance width="404"/>
	<outline>
		<component base="cap" yOffset="300"/>
		<component base="cap" yOffset="596"/>
		<contour>
			<point x="0" y="502" type="line"/>
			<point x="0" y="798" type="line"/>
			<point x="404" y="798" type="line"/>
			<point x="404" y="502" type="line"/>
		</contour>
	</outline>
</glyph>
<glyph name="_71" format="2">
	<unicode hex="0147"/>
	<advance width="200"/>
	<outline>
		<component base="cap" yOffset="290"/>
		<component base="cap" yOffset="800"/>
		<contour>
			<point x="0" y="390" type="line"/>
			<point x="0" y="900" type="line"/>
			<point x="200" y="900" type="line"/>
			<point x="200" y="390" type="line"/>
		</contour>
	</outline>
</glyph>
<glyph name="_72" format="2">
	<unicode hex="0148"/>
	<unicode hex="2586"/>
	<unicode hex="004B"/>
	<advance width="200"/>
	<outline>
		<component base="cap" yOffset="280"/>
		<component base="cap" yOffset="800"/>
		<contour>
			<point x="0" y="380" type="line"/>
			<point x="0" y="900" type="line"/>
			<point x="200" y="900" type="line"/>
			<point x="200" y="380" type="line"/>
		</contour>
	</outline>
</glyph>
<glyph name="_73" format="2">
	<unicode hex="0149"/>
	<advance width="200"/>
	<outline>
		<component base="cap" yOffset="270"/>
		<component base="cap" yOffset="800"/>
		<contour>
			<point x="0" y="370" type="line"/>
			<point x="0" y="900" type="line"/>
			<point x="200" y="900" type="line"/>
			<point x="200" y="370" type="line"/>
		</contour>
	</outline>
</glyph>
<glyph name="_74" format="2">
	<unicode hex="014A"/>
	<unicode hex="004C"/>
	<advance width="250"/>
	<outline>
		<component base="cap" yOffset="260"/>
		<component base="cap" yOffset="750"/>
		<contour>
			<point x="0" y="385" type="line"/>
			<point x="0" y="875" type="line"/>
			<point x="250" y="875" type="line"/>
			<point x="250" y="385" type="line"/>
		</contour>
	</outline>
</glyph>
<glyph name="_75" format="2">
	<unicode hex="014B"/>
	<advance width="404"/>
	<outline>
		<component base="cap" yOffset="250"/>
		<component base="cap" yOffset="596"/>
		<contour>
			<point x="0" y="452" type="line"/>
			<point x="0" y="798" type="line"/>
			<point x="404" y="798" type="line"/>
			<point x="404" y="452" type="line"/>
		</contour>
	</outline>
</glyph>
<glyph name="_76" format="2">
	<unicode hex="014C"/>
	<unicode hex="004D"/>
	<advance width="200"/>
	<outline>
		<component base="cap" yOffset="240"/>
		<component base="cap" yOffset="800"/>
		<contour>
			<point x="0" y="340" type="line"/>
			<point x="0" y="900" type="line"/>
			<point x="200" y="900" type="line"/>
			<point x="200" y="340" type="line"/>
		</contour>
	</outline>
</glyph>
<glyph name="_77" format="2">
	<unicode hex="014D"/>
	<advance width="250"/>
	<outline>
		<component base="cap" yOffset="230"/>
		<component base="cap" yOffset="750"/>
		<contour>
			<point x="0" y="355" type="line"/>
			<point x="0" y="875" type="line"/>
			<point x="250" y="875" type="line"/>
			<point x="250" y="355" type="line"/>
		</contour>
	</outline>
</glyph>
<glyph name="_78" format="2">
	<unicode hex="014E"/>
	<unicode hex="004E"/>
	<advance width="404"/>
	<outline>
		<component base="cap" yOffset="220"/>
		<component base="cap" yOffset="596"/>
		<contour>
			<point x="0" y="422" type="line"/>
			<point x="0" y="798" type="line"/>
			<point x="404" y="798" type="line"/>
			<point x="404" y="422" type="line"/>
		</contour>
	</outline>
</glyph>
<glyph name="_79" format="2">
	<unicode hex="014F"/>
	<advance width="250"/>
	<outline>
		<component base="cap" yOffset="210"/>
		<component base="cap" yOffset="750"/>
		<contour>
			<point x="0" y="335" type="line"/>
			<point x="0" y="875" type="line"/>
			<point x="250" y="875" type="line"/>
			<point x="250" y="335" type="line"/>
		</contour>
	</outline>
</glyph>
<glyph name="_81" format="2">
	<unicode hex="0151"/>
	<advance width="250"/>
	<outline>
		<component base="cap" yOffset="190"/>
		<component base="cap" yOffset="750"/>
		<contour>
			<point x="0" y="315" type="line"/>
			<point x="0" y="875" type="line"/>
			<point x="250" y="875" type="line"/>
			<point x="250" y="315" type="line"/>
		</contour>
	</outline>
</glyph>
<glyph name="_82" format="2">
	<unicode hex="0152"/>
	<unicode hex="0050"/>
	<advance width="200"/>
	<outline>
		<component base="cap" yOffset="180"/>
		<component base="cap" yOffset="800"/>
		<contour>
			<point x="0" y="280" type="line"/>
			<point x="0" y="900" type="line"/>
			<point x="200" y="900" type="line"/>
			<point x="200" y="280" type="line"/>
		</contour>
	</outline>
</glyph>
<glyph name="_83" format="2">
	<unicode hex="0153"/>
	<advance width="404"/>
	<outline>
		<component base="cap" yOffset="170"/>
		<component base="cap" yOffset="596"/>
		<contour>
			<point x="0" y="372" type="line"/>
			<point x="0" y="798" type="line"/>
			<point x="404" y="798" type="line"/>
			<point x="404" y="372" type="line"/>
		</contour>
	</outline>
</glyph>
<glyph name="_84" format="2">
	<unicode hex="0154"/>
	<unicode hex="0051"/>
	<advance width="200"/>
	<outline>
		<component base="cap" yOffset="160"/>
		<component base="cap" yOffset="800"/>
		<contour>
			<point x="0" y="260" type="line"/>
			<point x="0" y="900" type="line"/>
			<point x="200" y="900" type="line"/>
			<point x="200" y="260" type="line"/>
		</contour>
	</outline>
</glyph>
<glyph name="_86" format="2">
	<unicode hex="0156"/>
	<unicode hex="2587"/>
	<unicode hex="0052"/>
	<advance width="250"/>
	<outline>
		<component base="cap" yOffset="140"/>
		<component base="cap" yOffset="750"/>
		<contour>
			<point x="0" y="265" type="line"/>
			<point x="0" y="875" type="line"/>
			<point x="250" y="875" type="line"/>
			<point x="250" y="265" type="line"/>
		</contour>
	</outline>
</glyph>
<glyph name="_87" format="2">
	<unicode hex="0157"/>
	<advance width="200"/>
	<outline>
		<component base="cap" yOffset="130"/>
		<component base="cap" yOffset="800"/>
		<contour>
			<point x="0" y="230" type="line"/>
			<point x="0" y="900" type="line"/>
			<point x="200" y="900" type="line"/>
			<point x="200" y="230" type="line"/>
		</contour>
	</outline>
</glyph>
<glyph name="_88" format="2">
	<unicode hex="0158"/>
	<unicode hex="0053"/>
	<advance width="404"/>
	<outline>
		<component base="cap" yOffset="120"/>
		<component base="cap" yOffset="596"/>
		<contour>
			<point x="0" y="322" type="line"/>
			<point x="0" y="798" type="line"/>
			<point x="404" y="798" type="line"/>
			<point x="404" y="322" type="line"/>
		</contour>
	</outline>
</glyph>
<glyph name="_89" format="2">
	<unicode hex="0159"/>
	<advance width="250"/>
	<outline>
		<component base="cap" yOffset="110"/>
		<component base="cap" yOffset="750"/>
		<contour>
			<point x="0" y="235" type="line"/>
			<point x="0" y="875" type="line"/>
			<point x="250" y="875" type="line"/>
			<point x="250" y="235" type="line"/>
		</contour>
	</outline>
</glyph>
<glyph name="_90" format="2">
	<unicode hex="015A"/>
	<unicode hex="0039"/>
	<unicode hex="0054"/>
	<advance width="200"/>
	<outline>
		<component base="cap" yOffset="100"/>
		<component base="cap" yOffset="800"/>
		<contour>
			<point x="0" y="200" type="line"/>
			<point x="0" y="900" type="line"/>
			<point x="200" y="900" type="line"/>
			<point x="200" y="200" type="line"/>
		</contour>
	</outline>
</glyph>
<glyph name="_91" format="2">
	<unicode hex="015B"/>
	<advance width="200"/>
	<outline>
		<component base="cap" yOffset="90"/>
		<component base="cap" yOffset="800"/>
		<contour>
			<point x="0" y="190" type="line"/>
			<point x="0" y="900" type="line"/>
			<point x="200" y="900" type="line"/>
			<point x="200" y="190" type="line"/>
		</contour>
	</outline>
</glyph>
<glyph name="_92" format="2">
	<unicode hex="015C"/>
	<unicode hex="0055"/>
	<advance width="250"/>
	<outline>
		<component base="cap" yOffset="80"/>
		<component base="cap" yOffset="750"/>
		<contour>
			<point x="0" y="205" type="line"/>
			<point x="0" y="875" type="line"/>
			<point x="250" y="875" type="line"/>
			<point x="250" y="205" type="line"/>
		</contour>
	</outline>
</glyph>
<glyph name="_93" format="2">
	<unicode hex="015D"/>
	<advance width="404"/>
	<outline>
		<component base="cap" yOffset="70"/>
		<component base="cap" yOffset="596"/>
		<contour>
			<point x="0" y="272" type="line"/>
			<point x="0" y="798" type="line"/>
			<point x="404" y="798" type="line"/>
			<point x="404" y="272" type="line"/>
		</contour>
	</outline>
</glyph>
<glyph name="_94" format="2">
	<unicode hex="015E"/>
	<unicode hex="0056"/>
	<advance width="200"/>
	<outline>
		<component base="cap" yOffset="60"/>
		<component base="cap" yOffset="800"/>
		<contour>
			<point x="0" y="160" type="line"/>
			<point x="0" y="900" type="line"/>
			<point x="200" y="900" type="line"/>
			<point x="200" y="160" type="line"/>
		</contour>
	</outline>
</glyph>
<glyph name="_95" format="2">
	<unicode hex="015F"/>
	<advance width="250"/>
	<outline>
		<component base="cap" yOffset="50"/>
		<component base="cap" yOffset="750"/>
		<contour>
			<point x="0" y="175" type="line"/>
			<point x="0" y="875" type="line"/>
			<point x="250" y="875" type="line"/>
			<point x="250" y="175" type="line"/>
		</contour>
	</outline>
</glyph>
<glyph name="_97" format="2">
	<unicode hex="0161"/>
	<advance width="404"/>
	<outline>
		<component base="cap" yOffset="30"/>
		<component base="cap" yOffset="596"/>
		<contour>
			<point x="0" y="232" type="line"/>
			<point x="0" y="798" type="line"/>
			<point x="404" y="798" type="line"/>
			<point x="404" y="232" type="line"/>
		</contour>
	</outline>
</glyph>
<glyph name="_98" format="2">
	<unicode hex="0162"/>
	<unicode hex="0058"/>
	<advance width="250"/>
	<outline>
		<component base="cap" yOffset="20"/>
		<component base="cap" yOffset="750"/>
		<contour>
			<point x="0" y="145" type="line"/>
			<point x="0" y="875" type="line"/>
			<point x="250" y="875" type="line"/>
			<point x="250" y="145" type="line"/>
		</contour>
	</outline>
</glyph>
<glyph name="_99" format="2">
	<unicode hex="0163"/>
	<unicode hex="0059"/>
	<advance width="404"/>
	<outline>
		<component base="cap" yOffset="10"/>
		<component base="cap" yOffset="596"/>
		<contour>
			<point x="0" y="212" type="line"/>
			<point x="0" y="798" type="line"/>
			<point x="404" y="798" type="line"/>
			<point x="404" y="212" type="line"/>
		</contour>
	</outline>
</glyph>
<glyph name="_101" format="2">
	<unicode hex="0165"/>
	<advance width="200"/>
	<outline>
		<component base="cap" yOffset="-10"/>
		<component base="cap" yOffset="800"/>
		<contour>
			<point x="0" y="90" type="line"/>
			<point x="0" y="900" type="line"/>
			<point x="200" y="900" type="line"/>
			<point x="200" y="90" type="line"/>
		</contour>
	</outline>
</glyph>
<glyph name="_102" format="2">
	<unicode hex="0166"/>
	<advance width="200"/>
	<outline>
		<component base="cap" yOffset="-20"/>
		<component base="cap" yOffset="800"/>
		<contour>
			<point x="0" y="80" type="line"/>
			<point x="0" y="900" type="line"/>
			<point x="200" y="900" type="line"/>
			<point x="200" y="80" type="line"/>
		</contour>
	</outline>
</glyph>
<glyph name="_103" format="2">
	<unicode hex="0167"/>
	<advance width="250"/>
	<outline>
		<component base="cap" yOffset="-30"/>
		<component base="cap" yOffset="750"/>
		<contour>
			<point x="0" y="95" type="line"/>
			<point x="0" y="875" type="line"/>
			<point x="250" y="875" type="line"/>
			<point x="250" y="95" type="line"/>
		</contour>
	</outline>
</glyph>
<glyph name="_104" format="2">
	<unicode hex="0168"/>
	<advance width="250"/>
	<outline>
		<component base="cap" yOffset="-40"/>
		<component base="cap" yOffset="750"/>
		<contour>
			<point x="0" y="85" type="line"/>
			<point x="0" y="875" type="line"/>
			<point x="250" y="875" type="line"/>
			<point x="250" y="85" type="line"/>
		</contour>
	</outline>
</glyph>
<glyph name="_105" format="2">
	<unicode hex="0169"/>
	<advance width="404"/>
	<outline>
		<component base="cap" yOffset="-50"/>
		<component base="cap" yOffset="596"/>
		<contour>
			<point x="0" y="152" type="line"/>
			<point x="0" y="798" type="line"/>
			<point x="404" y="798" type="line"/>
			<point x="404" y="152" type="line"/>
		</contour>
	</outline>
</glyph>
<glyph name="_106" format="2">
	<unicode hex="016A"/>
	<advance width="250"/>
	<outline>
		<component base="cap" yOffset="-60"/>
		<component base="cap" yOffset="750"/>
		<contour>
			<point x="0" y="65" type="line"/>
			<point x="0" y="875" type="line"/>
			<point x="250" y="875" type="line"/>
			<point x="250" y="65" type="line"/>
		</contour>
	</outline>
</glyph>
<glyph name="_107" format="2">
	<unicode hex="016B"/>
	<advance width="250"/>
	<outline>
		<component base="cap" yOffset="-70"/>
		<component base="cap" yOffset="750"/>
		<contour>
			<point x="0" y="55" type="line"/>
			<point x="0" y="875" type="line"/>
			<point x="250" y="875" type="line"/>
			<point x="250" y="55" type="line"/>
		</contour>
	</outline>
</glyph>
<glyph name="_108" format="2">
	<unicode hex="016C"/>
	<advance width="250"/>
	<outline>
		<component base="cap" yOffset="-80"/>
		<component base="cap" yOffset="750"/>
		<contour>
			<point x="0" y="45" type="line"/>
			<point x="0" y="875" type="line"/>
			<point x="250" y="875" type="line"/>
			<point x="250" y="45" type="line"/>
		</contour>
	</outline>
</glyph>
<glyph name="_110" format="2">
	<unicode hex="016E"/>
	<advance width="200"/>
	<outline>
		<component base="cap" yOffset="-100"/>
		<component base="cap" yOffset="800"/>
		<contour>
			<point x="0" y="0" type="line"/>
			<point x="0" y="900" type="line"/>
			<point x="200" y="900" type="line"/>
			<point x="200" y="0" type="line"/>
		</contour>
	</outline>
</glyph>
<glyph name="_111" format="2">
	<unicode hex="016F"/>
	<advance width="200"/>
	<outline>
		<component base="cap" yOffset="-110"/>
		<component base="cap" yOffset="800"/>
		<contour>
			<point x="0" y="-10" type="line"/>
			<point x="0" y="900" type="line"/>
			<point x="200" y="900" type="line"/>
			<point x="200" y="-10" type="line"/>
		</contour>
	</outline>
</glyph>
<glyph name="_112" format="2">
	<unicode hex="0170"/>
	<advance width="200"/>
	<outline>
		<component base="cap" yOffset="-120"/>
		<component base="cap" yOffset="800"/>
		<contour>
			<point x="0" y="-20" type="line"/>
			<point x="0" y="900" type="line"/>
			<point x="200" y="900" type="line"/>
			<point x="200" y="-20" type="line"/>
		</contour>
	</outline>
</glyph>
<glyph name="_113" format="2">
	<unicode hex="0171"/>
	<advance width="404"/>
	<outline>
		<component base="cap" yOffset="-130"/>
		<component base="cap" yOffset="596"/>
		<contour>
			<point x="0" y="72" type="line"/>
			<point x="0" y="798" type="line"/>
			<point x="404" y="798" type="line"/>
			<point x="404" y="72" type="line"/>
		</contour>
	</outline>
</glyph>
<glyph name="_114" format="2">
	<unicode hex="0172"/>
	<advance width="250"/>
	<outline>
		<component base="cap" yOffset="-140"/>
		<component base="cap" yOffset="750"/>
		<contour>
			<point x="0" y="-15" type="line"/>
			<point x="0" y="875" type="line"/>
			<point x="250" y="875" type="line"/>
			<point x="250" y="-15" type="line"/>
		</contour>
	</outline>
</glyph>
<glyph name="_115" format="2">
	<unicode hex="0173"/>
	<advance width="404"/>
	<outline>
		<component base="cap" yOffset="-150"/>
		<component base="cap" yOffset="596"/>
		<contour>
			<point x="0" y="52" type="line"/>
			<point x="0" y="798" type="line"/>
			<point x="404" y="798" type="line"/>
			<point x="404" y="52" type="line"/>
		</contour>
	</outline>
</glyph>
<glyph name="_117" format="2">
	<unicode hex="0175"/>
	<advance width="404"/>
	<outline>
		<component base="cap" yOffset="-170"/>
		<component base="cap" yOffset="596"/>
		<contour>
			<point x="0" y="32" type="line"/>
			<point x="0" y="798" type="line"/>
			<point x="404" y="798" type="line"/>
			<point x="404" y="32" type="line"/>
		</contour>
	</outline>
</glyph>
<glyph name="_118" format="2">
	<unicode hex="0176"/>
	<advance width="200"/>
	<outline>
		<component base="cap" yOffset="-180"/>
		<component base="cap" yOffset="800"/>
		<contour>
			<point x="0" y="-80" type="line"/>
			<point x="0" y="900" type="line"/>
			<point x="200" y="900" type="line"/>
			<point x="200" y="-80" type="line"/>
		</contour>
	</outline>
</glyph>
<glyph name="_119" format="2">
	<unicode hex="0177"/>
	<advance width="250"/>
	<outline>
		<component base="cap" yOffset="-190"/>
		<component base="cap" yOffset="750"/>
		<contour>
			<point x="0" y="-65" type="line"/>
			<point x="0" y="875" type="line"/>
			<point x="250" y="875" type="line"/>
			<point x="250" y="-65" type="line"/>
		</contour>
	</outline>
</glyph>
<glyph name="_120" format="2">
	<unicode hex="0178"/>
	<advance width="404"/>
	<outline>
		<component base="cap" yOffset="-200"/>
		<component base="cap" yOffset="596"/>
		<contour>
			<point x="0" y="2" type="line"/>
			<point x="0" y="798" type="line"/>
			<point x="404" y="798" type="line"/>
			<point x="404" y="2" type="line"/>
		</contour>
	</outline>
</glyph>
<glyph name="_121" format="2">
	<unicode hex="0179"/>
	<advance width="404"/>
	<outline>
		<component base="cap" yOffset="-210"/>
		<component base="cap" yOffset="596"/>
		<contour>
			<point x="0" y="-8" type="line"/>
			<point x="0" y="798" type="line"/>
			<point x="404" y="798" type="line"/>
			<point x="404" y="-8" type="line"/>
		</contour>
	</outline>
</glyph>
<glyph name="_122" format="2">
	<unicode hex="017A"/>
	<advance width="404"/>
	<outline>
		<component base="cap" yOffset="-220"/>
		<component base="cap" yOffset="596"/>
		<contour>
			<point x="0" y="-18" type="line"/>
			<point x="0" y="798" type="line"/>
			<point x="404" y="798" type="line"/>
			<point x="404" y="-18" type="line"/>
		</contour>
	</outline>
</glyph>
<glyph name="_123" format="2">
	<unicode hex="017B"/>
	<advance width="250"/>
	<outline>
		<component base="cap" yOffset="-230"/>
		<component base="cap" yOffset="750"/>
		<contour>
			<point x="0" y="-105" type="line"/>
			<point x="0" y="875" type="line"/>
			<point x="250" y="875" type="line"/>
			<point x="250" y="-105" type="line"/>
		</contour>
	</outline>
</glyph>
<glyph name="_124" format="2">
	<unicode hex="017C"/>
	<advance width="250"/>
	<outline>
		<component base="cap" yOffset="-240"/>
		<component base="cap" yOffset="750"/>
		<contour>
			<point x="0" y="-115" type="line"/>
			<point x="0" y="875" type="line"/>
			<point x="250" y="875" type="line"/>
			<point x="250" y="-115" type="line"/>
		</contour>
	</outline>
</glyph>
<glyph name="_125" format="2">
	<unicode hex="017D"/>
	<advance width="200"/>
	<outline>
		<component base="cap" yOffset="-250"/>
		<component base="cap" yOffset="800"/>
		<contour>
			<point x="0" y="-150" type="line"/>
			<point x="0" y="900" type="line"/>
			<point x="200" y="900" type="line"/>
			<point x="200" y="-150" type="line"/>
		</contour>
	</outline>
</glyph>
<glyph name="_127" format="2">
	<unicode hex="017F"/>
	<advance width="200"/>
	<outline>
		<component base="cap" yOffset="-270"/>
		<component base="cap" yOffset="800"/>
		<contour>
			<point x="0" y="-170" type="line"/>
			<point x="0" y="900" type="line"/>
			<point x="200" y="900" type="line"/>
			<point x="200" y="-170" type="line"/>
		</contour>
	</outline>
</glyph>
<glyph name="_10.clip" format="2">
	<advance width="404"/>
	<outline>
		<contour>
			<point x="0" y="977.5"/>
			<point x="22.5" y="1000"/>
			<point x="50" y="1000" type="curve" smooth="yes"/>
			<point x="354" y="1000" type="line"/>
			<point x="381.5" y="1000"/>
			<point x="404" y="977.5"/>
			<point x="404" y="950" type="curve" smooth="yes"/>
			<point x="404" y="950" type="line"/>
			<point x="404" y="922.5"/>
			<point x="381.5" y="900"/>
			<point x="354" y="900" type="curve" smooth="yes"/>
			<point x="50" y="900" type="line"/>
			<point x="22.5" y="900"/>
			<point x="0" y="922.5"/>
			<point x="0" y="950" type="curve" smooth="yes"/>
			<point x="0" y="950" type="line"/>
		</contour>
	</outline>
</glyph>
<glyph name="_11.clip" format="2">
	<advance width="200"/>
	<outline>
		<contour>
			<point x="0" y="975.25"/>
			<point x="24.75" y="1000"/>
			<point x="55" y="1000" type="curve" smooth="yes"/>
			<point x="145" y="1000" type="line"/>
			<point x="175.25" y="1000"/>
			<point x="200" y="975.25"/>
			<point x="200" y="945" type="curve" smooth="yes"/>
			<point x="200" y="945" type="line"/>
			<point x="200" y="914.75"/>
			<point x="175.25" y="890"/>
			<point x="145" y="890" type="curve" smooth="yes"/>
			<point x="55" y="890" type="line"/>
			<point x="24.75" y="890"/>
			<point x="0" y="914.75"/>
			<point x="0" y="945" type="curve" smooth="yes"/>
			<point x="0" y="945" type="line"/>
		</contour>
	</outline>
</glyph>
<glyph name="_12.clip" format="2">
	<advance width="200"/>
	<outline>
		<contour>
			<point x="0" y="973"/>
			<point x="26" y="1000"/>
			<point x="60" y="1000" type="curve" smooth="yes"/>
			<point x="140" y="1000" type="line"/>
			<point x="173" y="1000"/>
			<point x="200" y="973"/>
			<point x="200" y="940" type="curve" smooth="yes"/>
			<point x="200" y="940" type="line"/>
			<point x="200" y="907"/>
			<point x="173" y="880"/>
			<point x="140" y="880" type="curve" smooth="yes"/>
			<point x="60" y="880" type="line"/>
			<point x="26" y="880"/>
			<point x="0" y="907"/>
			<point x="0" y="940" type="curve" smooth="yes"/>
			<point x="0" y="940" type="line"/>
		</contour>
	</outline>
</glyph>
<glyph name="_13.clip" format="2">
	<advance width="250"/>
	<outline>
		<contour>
			<point x="0" y="970.75"/>
			<point x="29.25" y="1000"/>
			<point x="65" y="1000" type="curve" smooth="yes"/>
			<point x="185" y="1000" type="line"/>
			<point x="220.75" y="1000"/>
			<point x="250" y="970.75"/>
			<point x="250" y="935" type="curve" smooth="yes"/>
			<point x="250" y="935" type="line"/>
			<point x="250" y="899.25"/>
			<point x="220.75" y="870"/>
			<point x="185" y="870" type="curve" smooth="yes"/>
			<point x="65" y="870" type="line"/>
			<point x="29.25" y="870"/>
			<point x="0" y="899.25"/>
			<point x="0" y="935" type="curve" smooth="yes"/>
			<point x="0" y="935" type="line"/>
		</contour>
	</outline>
</glyph>
<glyph name="_15.clip" format="2">
	<advance width="200"/>
	<outline>
		<contour>
			<point x="0" y="966.25"/>
			<point x="33.75" y="1000"/>
			<point x="75" y="1000" type="curve" smooth="yes"/>
			<point x="125" y="1000" type="line"/>
			<point x="166.25" y="1000"/>
			<point x="200" y="966.25"/>
			<point x="200" y="925" type="curve" smooth="yes"/>
			<point x="200" y="925" type="line"/>
			<point x="200" y="883.75"/>
			<point x="166.25" y="850"/>
			<point x="125" y="850" type="curve" smooth="yes"/>
			<point x="75" y="850" type="line"/>
			<point x="33.75" y="850"/>
			<point x="0" y="883.75"/>
			<point x="0" y="925" type="curve" smooth="yes"/>
			<point x="0" y="925" type="line"/>
		</contour>
	</outline>
</glyph>
<glyph name="_16.clip" format="2">
	<advance width="250"/>
	<outline>
		<contour>
			<point x="0" y="964"/>
			<point x="36" y="1000"/>
			<point x="80" y="1000" type="curve" smooth="yes"/>
			<point x="170" y="1000" type="line"/>
			<point x="214" y="1000"/>
			<point x="250" y="964"/>
			<point x="250" y="920" type="curve" smooth="yes"/>
			<point x="250" y="920" type="line"/>
			<point x="250" y="876"/>
			<point x="214" y="840"/>
			<point x="170" y="840" type="curve" smooth="yes"/>
			<point x="80" y="840" type="line"/>
			<point x="36" y="840"/>
			<point x="0" y="876"/>
			<point x="0" y="920" type="curve" smooth="yes"/>
			<point x="0" y="920" type="line"/>
		</contour>
	</outline>
</glyph>
<glyph name="_19.clip" format="2">
	<advance width="404"/>
	<outline>
		<contour>
			<point x="0" y="957.25"/>
			<point x="42.75" y="1000"/>
			<point x="95" y="1000" type="curve" smooth="yes"/>
			<point x="309" y="1000" type="line"/>
			<point x="361.25" y="1000"/>
			<point x="404" y="957.25"/>
			<point x="404" y="905" type="curve" smooth="yes"/>
			<point x="404" y="905" type="line"/>
			<point x="404" y="852.75"/>
			<point x="361.25" y="810"/>
			<point x="309" y="810" type="curve" smooth="yes"/>
			<point x="95" y="810" type="line"/>
			<point x="42.75" y="810"/>
			<point x="0" y="852.75"/>
			<point x="0" y="905" type="curve" smooth="yes"/>
			<point x="0" y="905" type="line"/>
		</contour>
	</outline>
</glyph>
<glyph name="_20.clip" format="2">
	<advance width="205"/>
	<outline>
		<contour>
			<point x="0" y="955"/>
			<point x="44" y="1000"/>
			<point x="100" y="1000" type="curve" smooth="yes"/>
			<point x="105" y="1000" type="line"/>
			<point x="160" y="1000"/>
			<point x="205" y="955"/>
			<point x="205" y="900" type="curve" smooth="yes"/>
			<point x="205" y="900" type="line"/>
			<point x="205" y="845"/>
			<point x="160" y="800"/>
			<point x="105" y="800" type="curve" smooth="yes"/>
			<point x="100" y="800" type="line"/>
			<point x="44" y="800"/>
			<point x="0" y="845"/>
			<point x="0" y="900" type="curve" smooth="yes"/>
			<point x="0" y="900" type="line"/>
		</contour>
	</outline>
</glyph>
<glyph name="_22.clip" format="2">
	<advance width="404"/>
	<outline>
		<contour>
			<point x="0" y="950.5"/>
			<point x="49.5" y="1000"/>
			<point x="110" y="1000" type="curve" smooth="yes"/>
			<point x="294" y="1000" type="line"/>
			<point x="354.5" y="1000"/>
			<point x="404" y="950.5"/>
			<point x="404" y="890" type="curve" smooth="yes"/>
			<point x="404" y="890" type="line"/>
			<point x="404" y="829.5"/>
			<point x="354.5" y="780"/>
			<point x="294" y="780" type="curve" smooth="yes"/>
			<point x="110" y="780" type="line"/>
			<point x="49.5" y="780"/>
			<point x="0" y="829.5"/>
			<point x="0" y="890" type="curve" smooth="yes"/>
			<point x="0" y="890" type="line"/>
		</contour>
	</outline>
</glyph>
<glyph name="_24.clip" format="2">
	<advance width="404"/>
	<outline>
		<contour>
			<point x="0" y="946"/>
			<point x="53" y="1000"/>
			<point x="120" y="1000" type="curve" smooth="yes"/>
			<point x="284" y="1000" type="line"/>
			<point x="350" y="1000"/>
			<point x="404" y="946"/>
			<point x="404" y="880" type="curve" smooth="yes"/>
			<point x="404" y="880" type="line"/>
			<point x="404" y="814"/>
			<point x="350" y="760"/>
			<point x="284" y="760" type="curve" smooth="yes"/>
			<point x="120" y="760" type="line"/>
			<point x="53" y="760"/>
			<point x="0" y="814"/>
			<point x="0" y="880" type="curve" smooth="yes"/>
			<point x="0" y="880" type="line"/>
		</contour>
	</outline>
</glyph>
<glyph name="_27.clip" format="2">
	<advance width="404"/>
	<outline>
		<contour>
			<point x="0" y="939.25"/>
			<point x="60.75" y="1000"/>
			<point x="135" y="1000" type="curve" smooth="yes"/>
			<point x="269" y="1000" type="line"/>
			<point x="343.25" y="1000"/>
			<point x="404" y="939.25"/>
			<point x="404" y="865" type="curve" smooth="yes"/>
			<point x="404" y="865" type="line"/>
			<point x="404" y="790.75"/>
			<point x="343.25" y="730"/>
			<point x="269" y="730" type="curve" smooth="yes"/>
			<point x="135" y="730" type="line"/>
			<point x="60.75" y="730"/>
			<point x="0" y="790.75"/>
			<point x="0" y="865" type="curve" smooth="yes"/>
			<point x="0" y="865" type="line"/>
		</contour>
	</outline>
</glyph>
<glyph name="_28.clip" format="2">
	<advance width="404"/>
	<outline>
		<contour>
			<point x="0" y="937"/>
			<point x="62" y="1000"/>
			<point x="140" y="1000" type="curve" smooth="yes"/>
			<point x="264" y="1000" type="line"/>
			<point x="341" y="1000"/>
			<point x="404" y="937"/>
			<point x="404" y="860" type="curve" smooth="yes"/>
			<point x="404" y="860" type="line"/>
			<point x="404" y="783"/>
			<point x="341" y="720"/>
			<point x="264" y="720" type="curve" smooth="yes"/>
			<point x="140" y="720" type="line"/>
			<point x="62" y="720"/>
			<point x="0" y="783"/>
			<point x="0" y="860" type="curve" smooth="yes"/>
			<point x="0" y="860" type="line"/>
		</contour>
	</outline>
</glyph>
<glyph name="_3.clip" format="2">
	<advance width="200"/>
	<outline>
		<contour>
			<point x="0" y="993.25"/>
			<point x="6.75" y="1000"/>
			<point x="15" y="1000" type="curve" smooth="yes"/>
			<point x="185" y="1000" type="line"/>
			<point x="193.25" y="1000"/>
			<point x="200" y="993.25"/>
			<point x="200" y="985" type="curve" smooth="yes"/>
			<point x="200" y="985" type="line"/>
			<point x="200" y="976.75"/>
			<point x="193.25" y="970"/>
			<point x="185" y="970" type="curve" smooth="yes"/>
			<point x="15" y="970" type="line"/>
			<point x="6.75" y="970"/>
			<point x="0" y="976.75"/>
			<point x="0" y="985" type="curve" smooth="yes"/>
			<point x="0" y="985" type="line"/>
		</contour>
	</outline>
</glyph>
<glyph name="_30.clip" format="2">
	<advance width="404"/>
	<outline>
		<contour>
			<point x="0" y="932.5"/>
			<point x="67.5" y="1000"/>
			<point x="150" y="1000" type="curve" smooth="yes"/>
			<point x="254" y="1000" type="line"/>
			<point x="336.5" y="1000"/>
			<point x="404" y="932.5"/>
			<point x="404" y="850" type="curve" smooth="yes"/>
			<point x="404" y="850" type="line"/>
			<point x="404" y="767.5"/>
			<point x="336.5" y="700"/>
			<point x="254" y="700" type="curve" smooth="yes"/>
			<point x="150" y="700" type="line"/>
			<point x="67.5" y="700"/>
			<point x="0" y="767.5"/>
			<point x="0" y="850" type="curve" smooth="yes"/>
			<point x="0" y="850" type="line"/>
		</contour>
	</outline>
</glyph>
<glyph name="_31.clip" format="2">
	<advance width="404"/>
	<outline>
		<contour>
			<point x="0" y="930.25"/>
			<point x="69.75" y="1000"/>
			<point x="155" y="1000" type="curve" smooth="yes"/>
			<point x="249" y="1000" type="line"/>
			<point x="334.25" y="1000"/>
			<point x="404" y="930.25"/>
			<point x="404" y="845" type="curve" smooth="yes"/>
			<point x="404" y="845" type="line"/>
			<point x="404" y="759.75"/>
			<point x="334.25" y="690"/>
			<point x="249" y="690" type="curve" smooth="yes"/>
			<point x="155" y="690" type="line"/>
			<point x="69.75" y="690"/>
			<point x="0" y="759.75"/>
			<point x="0" y="845" type="curve" smooth="yes"/>
			<point x="0" y="845" type="line"/>
		</contour>
	</outline>
</glyph>
<glyph name="_32.clip" format="2">
	<advance width="404"/>
	<outline>
		<contour>
			<point x="0" y="928"/>
			<point x="72" y="1000"/>
			<point x="160" y="1000" type="curve" smooth="yes"/>
			<point x="244" y="1000" type="line"/>
			<point x="332" y="1000"/>
			<point x="404" y="928"/>
			<point x="404" y="840" type="curve" smooth="yes"/>
			<point x="404" y="840" type="line"/>
			<point x="404" y="752"/>
			<point x="332" y="680"/>
			<point x="244" y="680" type="curve" smooth="yes"/>
			<point x="160" y="680" type="line"/>
			<point x="72" y="680"/>
			<point x="0" y="752"/>
			<point x="0" y="840" type="curve" smooth="yes"/>
			<point x="0" y="840" type="line"/>
		</contour>
	</outline>
</glyph>
<glyph name="_34.clip" format="2">
	<advance width="404"/>
	<outline>
		<contour>
			<point x="0" y="923.5"/>
			<point x="76.5" y="1000"/>
			<point x="170" y="1000" type="curve" smooth="yes"/>
			<point x="234" y="1000" type="line"/>
			<point x="327.5" y="1000"/>
			<point x="404" y="923.5"/>
			<point x="404" y="830" type="curve" smooth="yes"/>
			<point x="404" y="830" type="line"/>
			<point x="404" y="736.5"/>
			<point x="327.5" y="660"/>
			<point x="234" y="660" type="curve" smooth="yes"/>
			<point x="170" y="660" type="line"/>
			<point x="76.5" y="660"/>
			<point x="0" y="736.5"/>
			<point x="0" y="830" type="curve" smooth="yes"/>
			<point x="0" y="830" type="line"/>
		</contour>
	</outline>
</glyph>
<glyph name="_35.clip" format="2">
	<advance width="404"/>
	<outline>
		<contour>
			<point x="0" y="921.25"/>
			<point x="78.75" y="1000"/>
			<point x="175" y="1000" type="curve" smooth="yes"/>
			<point x="229" y="1000" type="line"/>
			<point x="325.25" y="1000"/>
			<point x="404" y="921.25"/>
			<point x="404" y="825" type="curve" smooth="yes"/>
			<point x="404" y="825" type="line"/>
			<point x="404" y="728.75"/>
			<point x="325.25" y="650"/>
			<point x="229" y="650" type="curve" smooth="yes"/>
			<point x="175" y="650" type="line"/>
			<point x="78.75" y="650"/>
			<point x="0" y="728.75"/>
			<point x="0" y="825" type="curve" smooth="yes"/>
			<point x="0" y="825" type="line"/>
		</contour>
	</outline>
</glyph>
<glyph name="_36.clip" format="2">
	<advance width="404"/>
	<outline>
		<contour>
			<point x="0" y="919"/>
			<point x="80" y="1000"/>
			<point x="180" y="1000" type="curve" smooth="yes"/>
			<point x="224" y="1000" type="line"/>
			<point x="323" y="1000"/>
			<point x="404" y="919"/>
			<point x="404" y="820" type="curve" smooth="yes"/>
			<point x="404" y="820" type="line"/>
			<point x="404" y="721"/>
			<point x="323" y="640"/>
			<point x="224" y="640" type="curve" smooth="yes"/>
			<point x="180" y="640" type="line"/>
			<point x="80" y="640"/>
			<point x="0" y="721"/>
			<point x="0" y="820" type="curve" smooth="yes"/>
			<point x="0" y="820" type="line"/>
		</contour>
	</outline>
</glyph>
<glyph name="_38.clip" format="2">
	<advance width="404"/>
	<outline>
		<contour>
			<point x="0" y="914.5"/>
			<point x="85.5" y="1000"/>
			<point x="190" y="1000" type="curve" smooth="yes"/>
			<point x="214" y="1000" type="line"/>
			<point x="318.5" y="1000"/>
			<point x="404" y="914.5"/>
			<point x="404" y="810" type="curve" smooth="yes"/>
			<point x="404" y="810" type="line"/>
			<point x="404" y="705.5"/>
			<point x="318.5" y="620"/>
			<point x="214" y="620" type="curve" smooth="yes"/>
			<point x="190" y="620" type="line"/>
			<point x="85.5" y="620"/>
			<point x="0" y="705.5"/>
			<point x="0" y="810" type="curve" smooth="yes"/>
			<point x="0" y="810" type="line"/>
		</contour>
	</outline>
</glyph>
<glyph name="_4.clip" format="2">
	<advance width="200"/>
	<outline>
		<contour>
			<point x="0" y="991"/>
			<point x="9" y="1000"/>
			<point x="20" y="1000" type="curve" smooth="yes"/>
			<point x="180" y="1000" type="line"/>
			<point x="191" y="1000"/>
			<point x="200" y="991"/>
			<point x="200" y="980" type="curve" smooth="yes"/>
			<point x="200" y="980" type="line"/>
			<point x="200" y="969"/>
			<point x="191" y="960"/>
			<point x="180" y="960" type="curve" smooth="yes"/>
			<point x="20" y="960" type="line"/>
			<point x="9" y="960"/>
			<point x="0" y="969"/>
			<point x="0" y="980" type="curve" smooth="yes"/>
			<point x="0" y="980" type="line"/>
		</contour>
	</outline>
</glyph>
<glyph name="_5.clip" format="2">
	<advance width="200"/>
	<outline>
		<contour>
			<point x="0" y="988.75"/>
			<point x="11.25" y="1000"/>
			<point x="25" y="1000" type="curve" smooth="yes"/>
			<point x="175" y="1000" type="line"/>
			<point x="188.75" y="1000"/>
			<point x="200" y="988.75"/>
			<point x="200" y="975" type="curve" smooth="yes"/>
			<point x="200" y="975" type="line"/>
			<point x="200" y="961.25"/>
			<point x="188.75" y="950"/>
			<point x="175" y="950" type="curve" smooth="yes"/>
			<point x="25" y="950" type="line"/>
			<point x="11.25" y="950"/>
			<point x="0" y="961.25"/>
			<point x="0" y="975" type="curve" smooth="yes"/>
			<point x="0" y="975" type="line"/>
		</contour>
	</outline>
</glyph>
<glyph name="_6.clip" format="2">
	<advance width="404"/>
	<outline>
		<contour>
			<point x="0" y="986.5"/>
			<point x="13.5" y="1000"/>
			<point x="30" y="1000" type="curve" smooth="yes"/>
			<point x="374" y="1000" type="line"/>
			<point x="390.5" y="1000"/>
			<point x="404" y="986.5"/>
			<point x="404" y="970" type="curve" smooth="yes"/>
			<point x="404" y="970" type="line"/>
			<point x="404" y="953.5"/>
			<point x="390.5" y="940"/>
			<point x="374" y="940" type="curve" smooth="yes"/>
			<point x="30" y="940" type="line"/>
			<point x="13.5" y="940"/>
			<point x="0" y="953.5"/>
			<point x="0" y="970" type="curve" smooth="yes"/>
			<point x="0" y="970" type="line"/>
		</contour>
	</outline>
</glyph>
<glyph name="_7.clip" format="2">
	<advance width="200"/>
	<outline>
		<contour>
			<point x="0" y="984.25"/>
			<point x="15.75" y="1000"/>
			<point x="35" y="1000" type="curve" smooth="yes"/>
			<point x="165" y="1000" type="line"/>
			<point x="184.25" y="1000"/>
			<point x="200" y="984.25"/>
			<point x="200" y="965" type="curve" smooth="yes"/>
			<point x="200" y="965" type="line"/>
			<point x="200" y="945.75"/>
			<point x="184.25" y="930"/>
			<point x="165" y="930" type="curve" smooth="yes"/>
			<point x="35" y="930" type="line"/>
			<point x="15.75" y="930"/>
			<point x="0" y="945.75"/>
			<point x="0" y="965" type="curve" smooth="yes"/>
			<point x="0" y="965" type="line"/>
		</contour>
	</outline>
</glyph>
<glyph name="_9.clip" format="2">
	<advance width="200"/>
	<outline>
		<contour>
			<point x="0" y="979.75"/>
			<point x="20.25" y="1000"/>
			<point x="45" y="1000" type="curve" smooth="yes"/>
			<point x="155" y="1000" type="line"/>
			<point x="179.75" y="1000"/>
			<point x="200" y="979.75"/>
			<point x="200" y="955" type="curve" smooth="yes"/>
			<point x="200" y="955" type="line"/>
			<point x="200" y="930.25"/>
			<point x="179.75" y="910"/>
			<point x="155" y="910" type="curve" smooth="yes"/>
			<point x="45" y="910" type="line"/>
			<point x="20.25" y="910"/>
			<point x="0" y="930.25"/>
			<point x="0" y="955" type="curve" smooth="yes"/>
			<point x="0" y="955" type="line"/>
		</contour>
	</outline>
</glyph>
<glyph name="cap" format="2">
	<outline>
		<contour>
			<point x="0" y="155"/>
			<point x="44" y="200"/>
			<point x="100" y="200" type="curve" smooth="yes"/>
			<point x="100" y="200" type="line"/>
			<point x="155" y="200"/>
			<point x="200" y="155"/>
			<point x="200" y="100" type="curve" smooth="yes"/>
			<point x="200" y="100" type="line"/>
			<point x="200" y="44"/>
			<point x="155" y="0"/>
			<point x="100" y="0" type="curve" smooth="yes"/>
			<point x="100" y="0" type="line"/>
			<point x="44" y="0"/>
			<point x="0" y="44"/>
			<point x="0" y="100" type="curve" smooth="yes"/>
			<point x="0" y="100" type="line"/>
		</contour>
	</outline>
</glyph>
